#!OML:ASF E:\Style4\Style4.ASF
:FULLY-SPECIFIED
:DEGREES
2363
root 0.109501 17.7407 -0.961148 1.40982 -0.0820767 2.34056
lowerback 6.4941 2.23675 -0.793941
upperback 2.01579 2.92745 0.192557
thorax -1.60939 1.46025 0.414758
lowerneck -1.27455 -4.84584 -6.16146
upperneck 5.60835 -6.45608 3.38869
head 2.35222 -3.26473 1.98523
rclavicle -8.05078e-015 0
rhumerus -51.6905 15.8812 -94.472
rradius 85.1458
rwrist -27.6059
rhand -28.1614 23.372
rfingers 7.12502
rthumb -1.54176 -6.60214
lclavicle -8.05078e-015 0
lhumerus -54.8314 -27.5331 102.243
lradius 84.7259
lwrist 32.2812
lhand -17.682 28.992
lfingers 7.12502
lthumb 8.57723 58.7978
rfemur -13.3949 2.93554 15.6465
rtibia 33.2232
rfoot -19.8343 -12.8252
rtoes -12.8508
lfemur -12.0042 -3.33212 -21.6307
ltibia 30.8172
lfoot -20.1854 8.87993
ltoes -14.4881
2364
root 0.112301 17.737 -0.962436 1.34708 -0.136783 2.36719
lowerback 6.55803 2.25377 -0.797514
upperback 2.06706 2.94916 0.18676
thorax -1.59231 1.47086 0.407716
lowerneck -1.24501 -4.84057 -6.07497
upperneck 5.50603 -6.44805 3.3174
head 2.30536 -3.26002 1.94789
rclavicle -8.64713e-015 7.55382e-015
rhumerus -52.0118 16.1484 -94.8366
rradius 84.8994
rwrist -27.8286
rhand -28.1314 23.4271
rfingers 7.12502
rthumb -1.51282 -6.54732
lclavicle -8.64713e-015 7.55382e-015
lhumerus -55.1589 -27.7515 102.592
lradius 84.6612
lwrist 32.6757
lhand -17.7408 28.9223
lfingers 7.12502
lthumb 8.52044 58.7304
rfemur -13.4024 2.93562 15.6028
rtibia 33.3367
rfoot -19.8943 -12.7759
rtoes -12.9401
lfemur -11.964 -3.2116 -21.6744
ltibia 30.8754
lfoot -20.2057 8.8707
ltoes -14.6408
2365
root 0.11479 17.7319 -0.962808 1.29817 -0.187207 2.47421
lowerback 6.61732 2.2759 -0.860509
upperback 2.10157 2.97319 0.148521
thorax -1.59118 1.48275 0.400108
lowerneck -1.21217 -4.84743 -6.12596
upperneck 5.43753 -6.46012 3.38248
head 2.28253 -3.26543 1.97921
rclavicle -1.80894e-014 8.34896e-015
rhumerus -52.3298 16.3754 -95.2015
rradius 84.7514
rwrist -28.0878
rhand -28.1268 23.3422
rfingers 7.12502
rthumb -1.5084 -6.6322
lclavicle -1.80894e-014 8.34896e-015
lhumerus -55.4873 -28.0285 102.915
lradius 84.66
lwrist 33.0591
lhand -17.8688 28.765
lfingers 7.12502
lthumb 8.39695 58.5781
rfemur -13.4276 2.89436 15.466
rtibia 33.467
rfoot -19.9396 -12.7038
rtoes -12.8864
lfemur -11.9261 -3.10531 -21.8068
ltibia 30.9205
lfoot -20.2541 8.85133
ltoes -14.7007
2366
root 0.116194 17.728 -0.964022 1.24613 -0.22261 2.52816
lowerback 6.67403 2.2904 -0.876663
upperback 2.13578 2.99005 0.107178
thorax -1.58631 1.49106 0.363839
lowerneck -1.21498 -4.86441 -6.24558
upperneck 5.4211 -6.48814 3.55424
head 2.29225 -3.27794 2.05643
rclavicle 4.47266e-016 -3.97569e-016
rhumerus -52.608 16.5664 -95.5863
rradius 84.639
rwrist -28.337
rhand -28.0466 23.4154
rfingers 7.12502
rthumb -1.43092 -6.55956
lclavicle 4.47266e-016 -3.97569e-016
lhumerus -55.8149 -28.3225 103.187
lradius 84.7345
lwrist 33.4286
lhand -18.0088 28.7597
lfingers 7.12502
lthumb 8.26189 58.5781
rfemur -13.4511 2.90911 15.3969
rtibia 33.5967
rfoot -20.0193 -12.6476
rtoes -12.7608
lfemur -11.9011 -3.00618 -21.8726
ltibia 30.9705
lfoot -20.2788 8.86606
ltoes -15.118
2367
root 0.117213 17.7257 -0.966876 1.23404 -0.179407 2.55455
lowerback 6.71546 2.28148 -0.893765
upperback 2.13746 2.97647 0.0992077
thorax -1.60781 1.48433 0.36457
lowerneck -1.26041 -4.87576 -6.28916
upperneck 5.49366 -6.50284 3.59871
head 2.32941 -3.28528 2.07699
rclavicle -2.52953e-014 3.18055e-015
rhumerus -52.9002 16.7734 -95.9493
rradius 84.5725
rwrist -28.5264
rhand -28.0596 23.6407
rfingers 7.12502
rthumb -1.44345 -6.33418
lclavicle -2.52953e-014 3.18055e-015
lhumerus -56.1702 -28.594 103.501
lradius 84.8893
lwrist 33.7873
lhand -17.9539 29.0073
lfingers 7.12502
lthumb 8.31485 58.8236
rfemur -13.5025 2.89812 15.3583
rtibia 33.7186
rfoot -20.1309 -12.6431
rtoes -12.4907
lfemur -11.9378 -3.01255 -21.9023
ltibia 31.0311
lfoot -20.3192 8.83729
ltoes -15.2113
